<svg id="图层_1" data-name="图层 1" xmlns="http://www.w3.org/2000/svg" viewBox="0 0 285.62 99.99"><defs><style>.cls-1,.cls-2{fill:#fff;}.cls-1{opacity:0.14;}</style></defs><title>android</title><rect class="cls-1" width="285.62" height="99.99" rx="12.49" ry="12.49"/><path class="cls-2" d="M118.78,191.43a2.48,2.48,0,0,0-2.46,2.5v9.76a2.46,2.46,0,1,0,4.92,0v-9.76a2.48,2.48,0,0,0-2.46-2.5Zm-29.65,0a2.48,2.48,0,0,0-2.46,2.5v9.76a2.46,2.46,0,1,0,4.92,0v-9.76a2.48,2.48,0,0,0-2.46-2.5Z" transform="translate(-56.91 -149.88)"/><path class="cls-2" d="M93.07,191.5v17.82A1.92,1.92,0,0,0,95,211.24h2.19v5.43a2.46,2.46,0,1,0,4.92,0v-5.43h3.83v5.43a2.46,2.46,0,1,0,4.92,0v-5.43H113a1.92,1.92,0,0,0,1.92-1.92V191.5H93.07Z" transform="translate(-56.91 -149.88)"/><path class="cls-2" d="M109.14,182.27l2-2.93a.35.35,0,1,0-.57-.39l-2.1,3a12.56,12.56,0,0,0-9.08,0l-2.1-3a.35.35,0,1,0-.57.39l2,2.93A9.53,9.53,0,0,0,93,189.91h21.87a9.53,9.53,0,0,0-5.75-7.65Zm-9.8,4.62a1.21,1.21,0,1,1,1.21-1.21,1.21,1.21,0,0,1-1.21,1.21Zm9.38,0a1.21,1.21,0,1,1,1.21-1.21,1.21,1.21,0,0,1-1.21,1.21Z" transform="translate(-56.91 -149.88)"/><path class="cls-2" d="M149.87,212.86l-3.12-7.6H135.41l-3,7.6h-3l10.1-24.93h3l10.35,24.93Zm-13.46-10h9.35l-4.11-10.59a16,16,0,0,0-.5-1.75q-.37,1.12-.62,1.75Z" transform="translate(-56.91 -149.88)"/><path class="cls-2" d="M169.93,201.15v11.59h-2.62V201.52q-.13-5-4.24-5.11-4.86.63-5.36,5.23v11.09l-2.62.13v-18.2h2.62v2.74a7.12,7.12,0,0,1,6-3.24Q169.93,194.17,169.93,201.15Z" transform="translate(-56.91 -149.88)"/><path class="cls-2" d="M189.25,212.74h-2.74v-2.62q-1.37,3.11-5.86,3-6.86-.37-7.1-9.1.37-9.35,7.73-9.72a6.37,6.37,0,0,1,5.23,3.12v-9.47h2.74Zm-2.74-7.85V202q-.37-5.11-4.74-5.48-5.49.13-5.61,7.48.12,7,5.24,7.23Q186.38,211.12,186.51,204.89Z" transform="translate(-56.91 -149.88)"/><path class="cls-2" d="M200.35,196.91a3.77,3.77,0,0,0-2.87,1.75,6.87,6.87,0,0,0-1.12,4.36v9.85h-2.62v-18.2h2.62v3.24h.12q1.25-3.49,4.24-3.61a4.64,4.64,0,0,1,3,.87l-1.12,2.49A4,4,0,0,0,200.35,196.91Z" transform="translate(-56.91 -149.88)"/><path class="cls-2" d="M213.18,213.24q-8.1-.5-8.48-9.1.25-9.6,8.72-9.85,7.85.37,8.23,9.47Q221.54,213.11,213.18,213.24Zm.13-16.83q-5.73.12-5.86,7.6.12,7,5.86,7.23,5.36-.25,5.48-7.35Q218.42,196.91,213.31,196.41Z" transform="translate(-56.91 -149.88)"/><path class="cls-2" d="M225.4,187.93H228v3.37H225.4Zm0,6.73H228v18.2H225.4Z" transform="translate(-56.91 -149.88)"/><path class="cls-2" d="M247.21,212.74h-2.74v-2.62q-1.37,3.11-5.86,3-6.86-.37-7.11-9.1.38-9.35,7.73-9.72a6.37,6.37,0,0,1,5.24,3.12v-9.47h2.74Zm-2.74-7.85V202q-.37-5.11-4.74-5.48-5.49.13-5.61,7.48.12,7,5.23,7.23Q244.34,211.12,244.47,204.89Z" transform="translate(-56.91 -149.88)"/><path class="cls-2" d="M266.28,196.16q6.85,3.62,12.09,6.48L276.75,205q-6.73-4.11-11.47-6.61V215h-2.49V190.55H250.7v-2.37h29.42v2.37H265.29v7.23Z" transform="translate(-56.91 -149.88)"/><path class="cls-2" d="M295.82,213.36a32.75,32.75,0,0,0,6.36-5.73q-1.37-3.61-1.87-11.72H282.49v-2H290v-2.87h-6.23v-1.87H290v-3.12h2.24v3.12h6v1.87h-6v2.87h8V190.3q-.13-2.74-.12-4.36h2.24q0,5,.13,8h10v2h-9.85a56.44,56.44,0,0,0,1.25,9.47,42.35,42.35,0,0,0,4.11-7.23l2.12,1a49.86,49.86,0,0,1-5.36,8.72,18.22,18.22,0,0,0,1.75,3.37q1.12,1.37,2,1.25c.5,0,.83-.29,1-.87a37.36,37.36,0,0,0,.75-4.36l2.24.87q-.25,1.62-.75,3.61a2,2,0,0,0-.12.5q-.87,3-3,2.87t-3.86-2.74a11.68,11.68,0,0,1-1.62-2.49,53.06,53.06,0,0,1-5.48,5c-.08-.08-.37-.33-.87-.75A11.36,11.36,0,0,1,295.82,213.36Zm-13-3.61q.62,0,2.24-.12l5.73-.37v-3h-6.61v-1.87a27.28,27.28,0,0,0,2.49-3.61h-3.49V198.9h4.61q.75-1.37,1.37-2.74l2.37.62a13.6,13.6,0,0,0-.87,1.37l-.37.75h8.6v1.87h-9.85a24.72,24.72,0,0,1-2.37,3.61h4.11v-2.74H293v2.74h5.73v1.87H293v2.87q1.87-.25,5.11-.5-1.87.13.75,0v2q-.75,0-4.36.37a13.08,13.08,0,0,1-1.5.13v4.11h-2.12v-4q-4.74.38-7.6.5Zm21.31-21.56,1.5-1.5a52.14,52.14,0,0,1,4.86,4.11l-1.75,1.62A50,50,0,0,0,304.17,188.18Z" transform="translate(-56.91 -149.88)"/></svg>