<svg id="图层_1" data-name="图层 1" xmlns="http://www.w3.org/2000/svg" viewBox="0 0 285.62 99.99"><defs><style>.cls-1,.cls-2{fill:#fff;}.cls-1{opacity:0.14;}</style></defs><title>iphone</title><rect class="cls-1" width="285.62" height="99.99" rx="12.49" ry="12.49"/><path class="cls-2" d="M112.7,183a10.32,10.32,0,0,0,2-6.5,10.15,10.15,0,0,0-6.09,3,10.32,10.32,0,0,0-2,6.5,10.16,10.16,0,0,0,6.09-3h0m4.88,15.13a8.79,8.79,0,0,1,4.51-7.69,10,10,0,0,0-7.48-4.22c-2.76,0-6.57,2-7.67,2s-3.63-1.76-6.91-1.81a9.39,9.39,0,0,0-8.84,6.2A23,23,0,0,0,93,210.21c2.67,5,5,7,7.31,7s5-1.74,7.12-1.74,4.15,1.74,6.36,1.74,4.49-1.81,6.15-4.32a41.83,41.83,0,0,0,3.18-6.41s0-.1,0-.25a8.76,8.76,0,0,1-5.56-8.17h0m0,0" transform="translate(-56.4 -150.03)"/><path class="cls-2" d="M138.64,188.93h2.62v3.37h-2.62Zm0,6.73h2.62v18.2h-2.62Z" transform="translate(-56.4 -150.03)"/><path class="cls-2" d="M156.71,203.76H149v10.1h-2.74V188.93H157q7.6.38,8.35,7.35Q165.19,203.64,156.71,203.76Zm-.5-12.34H149v9.85h7.23q6-.12,6.11-5.11Q162.07,191.55,156.21,191.42Z" transform="translate(-56.4 -150.03)"/><path class="cls-2" d="M183.76,202.14v11.59H181V202.52q0-5.11-4.11-5.11-4.86.63-5.23,5.23v11.22h-2.74V188.93h2.74v9.47a7,7,0,0,1,5.86-3.24Q183.88,195,183.76,202.14Z" transform="translate(-56.4 -150.03)"/><path class="cls-2" d="M195.48,214.24q-8.1-.5-8.48-9.1.25-9.6,8.73-9.85,7.85.37,8.23,9.47Q203.83,214.11,195.48,214.24Zm.12-16.83q-5.73.12-5.86,7.6.12,7,5.86,7.23,5.36-.25,5.49-7.35Q200.71,197.91,195.6,197.41Z" transform="translate(-56.4 -150.03)"/><path class="cls-2" d="M222.4,202.14v11.59h-2.62V202.52q-.13-5-4.24-5.11-4.86.63-5.36,5.23v11.09l-2.62.13v-18.2h2.62v2.74a7.12,7.12,0,0,1,6-3.24Q222.4,195.16,222.4,202.14Z" transform="translate(-56.4 -150.03)"/><path class="cls-2" d="M240,208.13l2.74.75q-1.5,5.49-8,5.36-8.35-.37-8.6-9.22.37-9.35,8.48-9.72,8,.25,8.23,9.72v.62H229q.25,6.11,5.61,6.48A5,5,0,0,0,240,208.13Zm-10.84-4.74H240q-.25-5.48-5.36-5.73Q229.5,198.16,229.13,203.39Z" transform="translate(-56.4 -150.03)"/><path class="cls-2" d="M261,197.16q6.85,3.62,12.09,6.48L271.51,206q-6.73-4.11-11.47-6.61V216h-2.49V191.55H245.46v-2.37h29.42v2.37H260v7.23Z" transform="translate(-56.4 -150.03)"/><path class="cls-2" d="M290.58,214.36a32.75,32.75,0,0,0,6.36-5.73q-1.37-3.61-1.87-11.72H277.24v-2h7.48V192h-6.23v-1.87h6.23v-3.12H287v3.12h6V192h-6v2.87h8V191.3q-.13-2.74-.12-4.36h2.24q0,5,.13,8h10v2h-9.85a56.44,56.44,0,0,0,1.25,9.47,42.35,42.35,0,0,0,4.11-7.23l2.12,1a49.86,49.86,0,0,1-5.36,8.72,18.22,18.22,0,0,0,1.75,3.37q1.12,1.37,2,1.25c.5,0,.83-.29,1-.87a37.36,37.36,0,0,0,.75-4.36l2.24.87q-.25,1.62-.75,3.61a2,2,0,0,0-.12.5q-.87,3-3,2.87t-3.86-2.74a11.68,11.68,0,0,1-1.62-2.49,53.06,53.06,0,0,1-5.48,5c-.08-.08-.37-.33-.87-.75A11.36,11.36,0,0,1,290.58,214.36Zm-13-3.61q.62,0,2.24-.12l5.73-.37v-3H279v-1.87a27.28,27.28,0,0,0,2.49-3.61H278V199.9h4.61q.75-1.37,1.37-2.74l2.37.62a13.6,13.6,0,0,0-.87,1.37l-.37.75h8.6v1.87h-9.85a24.72,24.72,0,0,1-2.37,3.61h4.11v-2.74h2.12v2.74h5.73v1.87h-5.73v2.87q1.87-.25,5.11-.5-1.87.13.75,0v2q-.75,0-4.36.37a13.08,13.08,0,0,1-1.5.13v4.11h-2.12v-4q-4.74.38-7.6.5Zm21.31-21.56,1.5-1.5a52.14,52.14,0,0,1,4.86,4.11l-1.75,1.62A50,50,0,0,0,298.93,189.18Z" transform="translate(-56.4 -150.03)"/></svg>