<svg id="图层_1" data-name="图层 1" xmlns="http://www.w3.org/2000/svg" viewBox="0 0 358.85 232.39"><defs><style>.cls-1{fill:#fff;}</style></defs><title>未标题-3</title><g id="_编组_" data-name="&lt;编组&gt;"><g id="_编组_2" data-name="&lt;编组&gt;"><path class="cls-1" d="M62.43,290.19l-3.07,3v3.35H76.53l2.94-4.37,10.21,4.32v1.45H59.36v14.24c0,2.25-2.25,3.05-5.4,3.05h-4.2v-17.3H20.37v-1.39h29.4V284.88Zm-42-15.46A143.28,143.28,0,0,0,32.78,256a59.76,59.76,0,0,0,5.62-13.73l12,5-4.19,2.86L42.06,256V283.8c0,2.71-1.71,3.7-7.34,3.7H32.34l.14-20.8c-2.17,1.77-9.29,6.85-11.68,8.35ZM63.82,273c0,2.17.94,3.05,2.78,3.05H76.74q2.63,0,3.65-3.13l3.36-9.08h.44l.86,6.07c.1.91.11,3.38,1.7,4.69a5.14,5.14,0,0,1,2,3.94,4.8,4.8,0,0,1-2.56,4.18q-2.56,1.6-8,1.61H61.63c-5.15,0-7.42-3.11-7.42-8.35v-5.86a62.8,62.8,0,0,1-11.27,3l-.15-.48a133.2,133.2,0,0,0,11.42-8V242.54l12.68,5.32-3.07,2.73V260c1.2-.87,8.76-6.92,10.4-8.9l12.24,5.13-5,1.46a99.43,99.43,0,0,1-17.6,9.46Z" transform="translate(-20.37 -83.9)"/></g><g id="_编组_3" data-name="&lt;编组&gt;"><path class="cls-1" d="M95.42,308.86s10.17-17.14,14.17-34.21l12.51,5.25-3.8,2.17c-12,19.14-20,25-22.52,27.11Zm.08-27.06a132.22,132.22,0,0,0,9.31-20.68,103.65,103.65,0,0,0,4.71-18.59l14,5.91L119,251.49c-.58,1.39-2.28,4.41-3.2,6.06h29.35l2.07-5.2L160.76,258s-.74.49-4.5,2.41c-3.24,3.32-7.35,8.63-12.71,12.69l-.36-.24,3.29-14H115.21a93.94,93.94,0,0,1-9.09,13.2,66.45,66.45,0,0,1-10.26,10Zm40.68-13-2.63,2.57v34.42c0,3.78-2.35,7.25-7,8.75a29.33,29.33,0,0,1-6.43,1.12,31.06,31.06,0,0,0-.66-4.05c-.62-2.76-4.18-5.82-8.11-5.82v-.56h9.2c1.79,0,3.36-1.13,3.36-4V263.65Zm.8,5.76c10.89,4.88,20.89,15.91,20.89,22.56,0,6.88-4.22,7.87-6.43,7.87s-3.95-1.37-4.09-3.21c-1.21-16.06-6.6-21.45-10.59-27Z" transform="translate(-20.37 -83.9)"/></g><g id="_编组_4" data-name="&lt;编组&gt;"><path class="cls-1" d="M166.38,287.42c1.32-2.2,10.69-19.4,13.31-26.73l10.61,4.45-3.18,1.64q-1.46,2.25-3,4.3t-3.4,4.14l3.05,1.33-2.39,2.28V313a3.38,3.38,0,0,1-.36,1.73,2.09,2.09,0,0,1-1.39.84,21,21,0,0,1-3.54.52c-1.24.08-3,.24-3,.24V282.65s-5.2,4.24-6.42,5.1Zm.37-21c3.05-4.58,11.12-20.91,11.46-22l10.45,4.39-3.21,1.52c-6.06,7.83-16.94,15.57-18.4,16.46Zm38.49,13.23-2.27,3v3.94h2.48L208,284l7.54,3L213.85,288H203v11q3.06-.48,6.17-1t6.17-1.16l.15.48A118.4,118.4,0,0,1,203,304c-6.33,2.9-16,6.25-16,6.25l-3.17-9.14,10.89-1V288h-8.92v-1.37h8.92l.28-11.28Zm.76-31.4-3,2.82v7h1.09l2.18-2.89,7.9,3.28-1.68,1H203v13.18h1.6l2.2-2.95,8,3.33-1.61,1H184.71v-1.36h10V259.48h-9v-1.37h9V243.65Zm7.78,23v-1.37h10.08l2.55-3.72,8.92,3.74-1.83,1.35h-6.13v35.36c0,4.95-1.77,7-5.35,8.25a27.17,27.17,0,0,1-5.46,1.07,31.62,31.62,0,0,0-.55-3.21c-.93-4.12-4.84-5.33-6.71-5.42v-.59h7c2.54,0,2.78-1.65,2.78-3.21V271.34Zm0-18.55h9.28l2.32-3.4,8.19,3.49-1.68,1.27H213.78Z" transform="translate(-20.37 -83.9)"/></g><g id="_编组_5" data-name="&lt;编组&gt;"><g id="_编组_6" data-name="&lt;编组&gt;"><path class="cls-1" d="M280.88,301.16c0,2.11.75,3.68,3.07,3.68h7.7c6.6,0,7.68-3.6,8.07-4.67l3-11.3h.88l.44,8.42c0,4.54,1.32,5.52,1.61,5.78a4.18,4.18,0,0,1,1.39,3.37c0,5.11-5.64,6.66-10.52,6.66H280.62c-4.62,0-8-3.57-8-8.91V287.66a48.13,48.13,0,0,1-34.19,28.11l-.22-.4q13.65-8.35,20.59-18.59a44.46,44.46,0,0,0,7.59-22.69c.43-7-.1-16.11-.14-17.39l12.56,5.23-3.21,3.13c-.15,2.91-.54,12.07-1.53,17.19l9.94,4.16-3.11,3Z" transform="translate(-20.37 -83.9)"/></g><g id="_编组_7" data-name="&lt;编组&gt;"><path class="cls-1" d="M295.27,285.89a3.17,3.17,0,0,1-2.38,3.05,32,32,0,0,1-3.76.68q-2,.28-3.47.44V250.48H258.57v37.41a2.63,2.63,0,0,1-1.78,2.55,23,23,0,0,1-6.25.59H249V244.24l11.57,4.87h23l2.6-6,12,5.1-3,4.13Z" transform="translate(-20.37 -83.9)"/></g></g><g id="_编组_8" data-name="&lt;编组&gt;"><path class="cls-1" d="M328.14,259.92l-2.71,2.6v49.15a3.06,3.06,0,0,1-2.08,2.81,28.39,28.39,0,0,1-3.94.56q-2.12.16-3.8.16.07-2.65.15-5.9c0-2.17,0-53.45,0-54.57ZM325,242.53A31.61,31.61,0,0,1,335.13,245c2.7,1.16,4.77,3.52,4.77,6.18,0,3.54-2.15,6.06-5.34,6.06-3,0-5.2-1.31-5.2-4.58,0-4.15-3.34-7.94-4.56-9.87Zm2.19,20.61h27l1.85-3,8.94,3.75-.52.67-6.24.08v28.83l.58-.16,1.32-3.2,6.52,2.73-.68.95-7.74,1.06v10h5.91c2.7,0,3.65-1.62,3.65-3.85V251.67h-25v-1.37h23.59l2.28-5.08,10.64,4.45-1.83,3.85V303.4c0,4.34-.73,8-6.53,10.36a30.13,30.13,0,0,1-6,1.61,27.73,27.73,0,0,0-.62-3.49c-1.35-5.68-6.09-6.22-6.09-6.22v2.57c0,2-1.23,3.5-6,3.5h-2.22v-16l-23.73,3v-1.27l5.91-.75V264.5h-5Zm13.22,10.49h9.57V264.5h-9.57Zm0,10.46h9.57V275h-9.6Zm9.57,1.37h-9.57v10.15l9.57-1.23Z" transform="translate(-20.37 -83.9)"/></g></g><path class="cls-1" d="M199.06,83.9a59.22,59.22,0,1,0,59.22,59.22A59.22,59.22,0,0,0,199.06,83.9Zm-9.23,95.86H188L168.3,132.84a11.38,11.38,0,0,0-7.25-6.28l-.19-.05v-.13H186v.07h0a5.71,5.71,0,0,0-2.83,5.21,6.62,6.62,0,0,0,.32,1.63L193.85,159l4.76-11.85,2.13,5.72Zm.1-59.9a11.4,11.4,0,0,0-7.47-7.26v-.09h28.74v.14h0c-.78,0-6.23.17-6.23,5.93a15.92,15.92,0,0,0,.73,3.38l2.12,5.35L214,112a3.17,3.17,0,0,0,.17-2.14,5.44,5.44,0,0,0-4.12-3.07v-.05h13.4s0,0,0,.07c-2.26.48-3.43,2.19-4.41,4.3-.13.27-.64,1.48-.64,1.48l-16.33,37.65Zm47.29-.74h-.1c-2,.37-3.77,2.18-5,5.16l-.19.48-18.66,49.15h-1.66L203.25,153l7.81-17.48,6.38,16.26,9.38-25.1h0a5.65,5.65,0,0,0-5.22-7.6h0V119h15.65Z" transform="translate(-20.37 -83.9)"/></svg>